<svg width="14" height="14" viewBox="0 0 14 14" fill="none" xmlns="http://www.w3.org/2000/svg">
<path d="M12.9688 4.39062C12.2172 3.35937 11.1672 2.67031 10.0156 2.35937V2.36093C9.74844 2.06406 9.44688 1.79062 9.10938 1.54687C6.55157 -0.312503 2.96094 0.254685 1.09376 2.8125C-0.410932 4.89062 -0.34687 7.68593 1.18751 9.67187L1.20001 11.7437C1.20001 11.7937 1.20782 11.8437 1.22344 11.8906C1.30626 12.1547 1.58751 12.3 1.85001 12.2172L3.82813 11.5937C4.35157 11.7797 4.89219 11.8859 5.42969 11.9156L5.42188 11.9219C6.81407 12.9359 8.63907 13.2406 10.3125 12.6875L12.2984 13.3344C12.3484 13.35 12.4 13.3594 12.4531 13.3594C12.7297 13.3594 12.9531 13.1359 12.9531 12.8594V10.7656C14.3297 8.89687 14.3656 6.31406 12.9688 4.39062ZM4.04688 10.4844L3.85938 10.4062L2.31251 10.8906L2.29688 9.26562L2.17188 9.125C0.850005 7.5125 0.762505 5.18906 2.00001 3.48437C3.50626 1.41875 6.39375 0.962497 8.45313 2.45312C10.5188 3.95468 10.9766 6.8375 9.48438 8.89062C8.23282 10.6078 5.99219 11.2422 4.04688 10.4844ZM11.9375 10.2187L11.8125 10.375L11.8281 12L10.2969 11.4844L10.1094 11.5625C9.23438 11.8875 8.30157 11.9141 7.43751 11.6719L7.43438 11.6703C8.58907 11.3156 9.63594 10.5969 10.3906 9.5625C11.5844 7.91718 11.7781 5.85 11.0844 4.0875L11.0938 4.09375C11.4531 4.35156 11.7828 4.67343 12.0625 5.0625C13.1969 6.61875 13.1328 8.7375 11.9375 10.2187Z" fill="white"/>
</svg>
