<svg width="223" height="40" viewBox="0 0 223 40" fill="none" xmlns="http://www.w3.org/2000/svg">
<g filter="url(#filter0_d_1_87)">
<circle cx="20" cy="16" r="16" fill="#7040F2"/>
<path d="M26.5 15.134C27.1667 15.5189 27.1667 16.4811 26.5 16.866L17.5 22.0622C16.8333 22.4471 16 21.966 16 21.1962V10.8038C16 10.034 16.8333 9.55292 17.5 9.93782L26.5 15.134Z" fill="white"/>
<path d="M45.216 22V10.8H47.056V22H45.216ZM46.48 22V20.32H52.336V22H46.48ZM57.0753 22.16C56.3073 22.16 55.6139 21.9893 54.9953 21.648C54.3873 21.296 53.9019 20.816 53.5393 20.208C53.1873 19.6 53.0113 18.9173 53.0113 18.16C53.0113 17.4027 53.1873 16.7253 53.5393 16.128C53.8913 15.52 54.3659 15.04 54.9633 14.688C55.5713 14.336 56.2433 14.16 56.9793 14.16C57.6939 14.16 58.3233 14.3253 58.8673 14.656C59.4219 14.9867 59.8539 15.44 60.1633 16.016C60.4833 16.592 60.6433 17.248 60.6433 17.984C60.6433 18.112 60.6326 18.2453 60.6112 18.384C60.6006 18.512 60.5793 18.656 60.5473 18.816H54.2433V17.376H59.6353L58.9793 17.952C58.9579 17.4827 58.8673 17.088 58.7073 16.768C58.5473 16.448 58.3179 16.2027 58.0193 16.032C57.7313 15.8613 57.3739 15.776 56.9473 15.776C56.4993 15.776 56.1099 15.872 55.7793 16.064C55.4486 16.256 55.1926 16.528 55.0113 16.88C54.8299 17.2213 54.7393 17.632 54.7393 18.112C54.7393 18.592 54.8353 19.0133 55.0273 19.376C55.2193 19.7387 55.4913 20.0213 55.8433 20.224C56.1953 20.416 56.6006 20.512 57.0593 20.512C57.4539 20.512 57.8166 20.4427 58.1473 20.304C58.4886 20.1653 58.7766 19.9627 59.0113 19.696L60.1313 20.832C59.7579 21.2693 59.3046 21.6 58.7713 21.824C58.2379 22.048 57.6726 22.16 57.0753 22.16ZM65.2701 22.16C64.5768 22.16 63.9475 21.984 63.3821 21.632C62.8275 21.28 62.3848 20.8053 62.0541 20.208C61.7341 19.6 61.5741 18.9227 61.5741 18.176C61.5741 17.4187 61.7341 16.7413 62.0541 16.144C62.3848 15.536 62.8275 15.056 63.3821 14.704C63.9475 14.3413 64.5768 14.16 65.2701 14.16C65.8568 14.16 66.3741 14.288 66.8221 14.544C67.2808 14.7893 67.6435 15.1307 67.9101 15.568C68.1768 16.0053 68.3101 16.5013 68.3101 17.056V19.264C68.3101 19.8187 68.1768 20.3147 67.9101 20.752C67.6541 21.1893 67.2968 21.536 66.8381 21.792C66.3795 22.0373 65.8568 22.16 65.2701 22.16ZM65.5581 20.496C66.2088 20.496 66.7315 20.2773 67.1261 19.84C67.5315 19.4027 67.7341 18.8427 67.7341 18.16C67.7341 17.7013 67.6435 17.296 67.4621 16.944C67.2808 16.592 67.0248 16.32 66.6941 16.128C66.3741 15.9253 65.9955 15.824 65.5581 15.824C65.1315 15.824 64.7528 15.9253 64.4221 16.128C64.1021 16.32 63.8461 16.592 63.6541 16.944C63.4728 17.296 63.3821 17.7013 63.3821 18.16C63.3821 18.6187 63.4728 19.024 63.6541 19.376C63.8461 19.728 64.1021 20.0053 64.4221 20.208C64.7528 20.4 65.1315 20.496 65.5581 20.496ZM67.6221 22V19.936L67.9261 18.064L67.6221 16.208V14.32H69.3821V22H67.6221ZM71.3354 22V14.32H73.0954V22H71.3354ZM73.0954 17.728L72.4874 17.424C72.4874 16.4533 72.7007 15.6693 73.1274 15.072C73.5647 14.464 74.2207 14.16 75.0954 14.16C75.4794 14.16 75.826 14.2293 76.1354 14.368C76.4447 14.5067 76.7327 14.7307 76.9994 15.04L75.8474 16.224C75.7087 16.0747 75.554 15.968 75.3834 15.904C75.2127 15.84 75.0154 15.808 74.7914 15.808C74.3007 15.808 73.8954 15.9627 73.5754 16.272C73.2554 16.5813 73.0954 17.0667 73.0954 17.728ZM83.115 22V17.568C83.115 17.056 82.9497 16.6347 82.619 16.304C82.299 15.9733 81.883 15.808 81.371 15.808C81.0297 15.808 80.7257 15.8827 80.459 16.032C80.1923 16.1813 79.9843 16.3893 79.835 16.656C79.6857 16.9227 79.611 17.2267 79.611 17.568L78.923 17.184C78.923 16.5973 79.051 16.08 79.307 15.632C79.563 15.1733 79.915 14.816 80.363 14.56C80.8217 14.2933 81.3337 14.16 81.899 14.16C82.475 14.16 82.987 14.3093 83.435 14.608C83.883 14.896 84.235 15.2747 84.491 15.744C84.747 16.2027 84.875 16.6827 84.875 17.184V22H83.115ZM77.851 22V14.32H79.611V22H77.851ZM89.8666 22V14.32H91.6266V22H89.8666ZM94.9706 22V17.424C94.9706 16.912 94.8106 16.5173 94.4906 16.24C94.1706 15.952 93.776 15.808 93.3066 15.808C92.9866 15.808 92.6986 15.872 92.4426 16C92.1973 16.128 92 16.3147 91.8506 16.56C91.7013 16.7947 91.6266 17.0827 91.6266 17.424L90.9386 17.04C90.9386 16.4533 91.0666 15.9467 91.3226 15.52C91.5786 15.0933 91.9253 14.7627 92.3626 14.528C92.8 14.2827 93.2906 14.16 93.8346 14.16C94.3786 14.16 94.8693 14.2773 95.3066 14.512C95.744 14.7467 96.0906 15.0773 96.3466 15.504C96.6026 15.9307 96.7306 16.4427 96.7306 17.04V22H94.9706ZM100.075 22V17.424C100.075 16.912 99.9146 16.5173 99.5946 16.24C99.2746 15.952 98.88 15.808 98.4106 15.808C98.1013 15.808 97.8186 15.872 97.5626 16C97.3066 16.128 97.104 16.3147 96.9546 16.56C96.8053 16.7947 96.7306 17.0827 96.7306 17.424L95.7386 17.04C95.792 16.4533 95.9626 15.9467 96.2506 15.52C96.5386 15.0933 96.9066 14.7627 97.3546 14.528C97.8133 14.2827 98.3146 14.16 98.8586 14.16C99.4133 14.16 99.9146 14.2773 100.363 14.512C100.811 14.7467 101.168 15.0773 101.435 15.504C101.701 15.9307 101.835 16.4427 101.835 17.04V22H100.075ZM107.168 22.16C106.421 22.16 105.744 21.984 105.136 21.632C104.528 21.2693 104.043 20.784 103.68 20.176C103.328 19.568 103.152 18.8907 103.152 18.144C103.152 17.3973 103.328 16.7253 103.68 16.128C104.043 15.5307 104.528 15.056 105.136 14.704C105.744 14.3413 106.421 14.16 107.168 14.16C107.925 14.16 108.608 14.336 109.216 14.688C109.824 15.04 110.304 15.52 110.656 16.128C111.019 16.7253 111.2 17.3973 111.2 18.144C111.2 18.8907 111.019 19.568 110.656 20.176C110.304 20.784 109.824 21.2693 109.216 21.632C108.608 21.984 107.925 22.16 107.168 22.16ZM107.168 20.464C107.605 20.464 107.989 20.368 108.32 20.176C108.661 19.9733 108.923 19.696 109.104 19.344C109.296 18.992 109.392 18.592 109.392 18.144C109.392 17.696 109.296 17.3013 109.104 16.96C108.912 16.6187 108.651 16.352 108.32 16.16C107.989 15.9573 107.605 15.856 107.168 15.856C106.741 15.856 106.357 15.9573 106.016 16.16C105.685 16.352 105.424 16.6187 105.232 16.96C105.051 17.3013 104.96 17.696 104.96 18.144C104.96 18.592 105.051 18.992 105.232 19.344C105.424 19.696 105.685 19.9733 106.016 20.176C106.357 20.368 106.741 20.464 107.168 20.464ZM112.664 22V14.32H114.424V22H112.664ZM114.424 17.728L113.816 17.424C113.816 16.4533 114.029 15.6693 114.456 15.072C114.893 14.464 115.549 14.16 116.424 14.16C116.808 14.16 117.154 14.2293 117.464 14.368C117.773 14.5067 118.061 14.7307 118.328 15.04L117.176 16.224C117.037 16.0747 116.882 15.968 116.712 15.904C116.541 15.84 116.344 15.808 116.12 15.808C115.629 15.808 115.224 15.9627 114.904 16.272C114.584 16.5813 114.424 17.0667 114.424 17.728ZM122.513 22.16C121.745 22.16 121.051 21.9893 120.433 21.648C119.825 21.296 119.339 20.816 118.977 20.208C118.625 19.6 118.449 18.9173 118.449 18.16C118.449 17.4027 118.625 16.7253 118.977 16.128C119.329 15.52 119.803 15.04 120.401 14.688C121.009 14.336 121.681 14.16 122.417 14.16C123.131 14.16 123.761 14.3253 124.305 14.656C124.859 14.9867 125.291 15.44 125.601 16.016C125.921 16.592 126.081 17.248 126.081 17.984C126.081 18.112 126.07 18.2453 126.049 18.384C126.038 18.512 126.017 18.656 125.985 18.816H119.681V17.376H125.073L124.417 17.952C124.395 17.4827 124.305 17.088 124.145 16.768C123.985 16.448 123.755 16.2027 123.457 16.032C123.169 15.8613 122.811 15.776 122.385 15.776C121.937 15.776 121.547 15.872 121.217 16.064C120.886 16.256 120.63 16.528 120.449 16.88C120.267 17.2213 120.177 17.632 120.177 18.112C120.177 18.592 120.273 19.0133 120.465 19.376C120.657 19.7387 120.929 20.0213 121.281 20.224C121.633 20.416 122.038 20.512 122.497 20.512C122.891 20.512 123.254 20.4427 123.585 20.304C123.926 20.1653 124.214 19.9627 124.449 19.696L125.569 20.832C125.195 21.2693 124.742 21.6 124.209 21.824C123.675 22.048 123.11 22.16 122.513 22.16ZM133.911 22.16C133.217 22.16 132.588 21.984 132.023 21.632C131.468 21.28 131.025 20.8053 130.695 20.208C130.375 19.6 130.215 18.9227 130.215 18.176C130.215 17.4187 130.375 16.7413 130.695 16.144C131.025 15.536 131.468 15.056 132.023 14.704C132.588 14.3413 133.217 14.16 133.911 14.16C134.497 14.16 135.015 14.288 135.463 14.544C135.921 14.7893 136.284 15.1307 136.551 15.568C136.817 16.0053 136.951 16.5013 136.951 17.056V19.264C136.951 19.8187 136.817 20.3147 136.551 20.752C136.295 21.1893 135.937 21.536 135.479 21.792C135.02 22.0373 134.497 22.16 133.911 22.16ZM134.199 20.496C134.849 20.496 135.372 20.2773 135.767 19.84C136.172 19.4027 136.375 18.8427 136.375 18.16C136.375 17.7013 136.284 17.296 136.103 16.944C135.921 16.592 135.665 16.32 135.335 16.128C135.015 15.9253 134.636 15.824 134.199 15.824C133.772 15.824 133.393 15.9253 133.063 16.128C132.743 16.32 132.487 16.592 132.295 16.944C132.113 17.296 132.023 17.7013 132.023 18.16C132.023 18.6187 132.113 19.024 132.295 19.376C132.487 19.728 132.743 20.0053 133.063 20.208C133.393 20.4 133.772 20.496 134.199 20.496ZM136.263 22V19.936L136.567 18.064L136.263 16.208V14.32H138.023V22H136.263ZM144.088 22.16C143.501 22.16 142.979 22.0373 142.52 21.792C142.061 21.536 141.699 21.1893 141.432 20.752C141.176 20.3147 141.048 19.8187 141.048 19.264V17.056C141.048 16.5013 141.181 16.0053 141.448 15.568C141.715 15.1307 142.077 14.7893 142.536 14.544C142.995 14.288 143.512 14.16 144.088 14.16C144.781 14.16 145.405 14.3413 145.96 14.704C146.525 15.056 146.968 15.536 147.288 16.144C147.619 16.7413 147.784 17.4187 147.784 18.176C147.784 18.9227 147.619 19.6 147.288 20.208C146.968 20.8053 146.525 21.28 145.96 21.632C145.405 21.984 144.781 22.16 144.088 22.16ZM143.8 20.496C144.227 20.496 144.6 20.4 144.92 20.208C145.251 20.0053 145.507 19.728 145.688 19.376C145.88 19.024 145.976 18.6187 145.976 18.16C145.976 17.7013 145.88 17.296 145.688 16.944C145.507 16.592 145.251 16.32 144.92 16.128C144.6 15.9253 144.227 15.824 143.8 15.824C143.373 15.824 142.995 15.9253 142.664 16.128C142.333 16.32 142.077 16.592 141.896 16.944C141.715 17.296 141.624 17.7013 141.624 18.16C141.624 18.6187 141.715 19.024 141.896 19.376C142.077 19.728 142.333 20.0053 142.664 20.208C142.995 20.4 143.373 20.496 143.8 20.496ZM139.976 22V10.48H141.736V16.208L141.432 18.064L141.736 19.936V22H139.976ZM152.777 22.16C152.031 22.16 151.353 21.984 150.745 21.632C150.137 21.2693 149.652 20.784 149.289 20.176C148.937 19.568 148.761 18.8907 148.761 18.144C148.761 17.3973 148.937 16.7253 149.289 16.128C149.652 15.5307 150.137 15.056 150.745 14.704C151.353 14.3413 152.031 14.16 152.777 14.16C153.535 14.16 154.217 14.336 154.825 14.688C155.433 15.04 155.913 15.52 156.265 16.128C156.628 16.7253 156.809 17.3973 156.809 18.144C156.809 18.8907 156.628 19.568 156.265 20.176C155.913 20.784 155.433 21.2693 154.825 21.632C154.217 21.984 153.535 22.16 152.777 22.16ZM152.777 20.464C153.215 20.464 153.599 20.368 153.929 20.176C154.271 19.9733 154.532 19.696 154.713 19.344C154.905 18.992 155.001 18.592 155.001 18.144C155.001 17.696 154.905 17.3013 154.713 16.96C154.521 16.6187 154.26 16.352 153.929 16.16C153.599 15.9573 153.215 15.856 152.777 15.856C152.351 15.856 151.967 15.9573 151.625 16.16C151.295 16.352 151.033 16.6187 150.841 16.96C150.66 17.3013 150.569 17.696 150.569 18.144C150.569 18.592 150.66 18.992 150.841 19.344C151.033 19.696 151.295 19.9733 151.625 20.176C151.967 20.368 152.351 20.464 152.777 20.464ZM161.425 22.16C160.774 22.16 160.193 22.016 159.681 21.728C159.18 21.44 158.785 21.0453 158.497 20.544C158.22 20.032 158.081 19.4453 158.081 18.784V14.32H159.841V18.704C159.841 19.0773 159.9 19.3973 160.017 19.664C160.145 19.92 160.326 20.1173 160.561 20.256C160.806 20.3947 161.094 20.464 161.425 20.464C161.937 20.464 162.326 20.3147 162.593 20.016C162.87 19.7067 163.009 19.2693 163.009 18.704V14.32H164.769V18.784C164.769 19.456 164.625 20.048 164.337 20.56C164.06 21.0613 163.67 21.456 163.169 21.744C162.668 22.0213 162.086 22.16 161.425 22.16ZM167.707 22V11.12H169.467V22H167.707ZM165.867 15.92V14.32H171.307V15.92H165.867ZM176.029 22V10.8H177.309L177.869 12.912V22H176.029ZM183.789 22L177.085 13.248L177.309 10.8L184.013 19.552L183.789 22ZM183.789 22L183.229 20.032V10.8H185.069V22H183.789ZM188.313 22V13.312C188.313 12.7253 188.441 12.208 188.697 11.76C188.964 11.312 189.327 10.96 189.785 10.704C190.255 10.448 190.793 10.32 191.401 10.32C191.871 10.32 192.271 10.4 192.601 10.56C192.932 10.72 193.241 10.9493 193.529 11.248L192.393 12.384C192.265 12.256 192.127 12.1547 191.977 12.08C191.828 12.0053 191.636 11.968 191.401 11.968C190.975 11.968 190.644 12.0853 190.409 12.32C190.185 12.544 190.073 12.8693 190.073 13.296V22H188.313ZM186.473 15.92V14.32H192.393V15.92H186.473ZM194.425 22V11.12H196.185V22H194.425ZM192.585 15.92V14.32H198.025V15.92H192.585ZM199.32 22V14.32H201.08V22H199.32ZM200.2 12.912C199.901 12.912 199.651 12.8107 199.448 12.608C199.256 12.4053 199.16 12.1547 199.16 11.856C199.16 11.5573 199.256 11.3067 199.448 11.104C199.651 10.9013 199.901 10.8 200.2 10.8C200.509 10.8 200.76 10.9013 200.952 11.104C201.144 11.3067 201.24 11.5573 201.24 11.856C201.24 12.1547 201.144 12.4053 200.952 12.608C200.76 12.8107 200.509 12.912 200.2 12.912ZM206.59 22.16C205.833 22.16 205.145 21.984 204.526 21.632C203.918 21.28 203.438 20.8 203.086 20.192C202.734 19.584 202.558 18.9067 202.558 18.16C202.558 17.4027 202.734 16.7253 203.086 16.128C203.438 15.52 203.918 15.04 204.526 14.688C205.145 14.336 205.833 14.16 206.59 14.16C207.187 14.16 207.742 14.2773 208.254 14.512C208.777 14.736 209.219 15.0613 209.582 15.488L208.43 16.656C208.206 16.3893 207.934 16.192 207.614 16.064C207.305 15.9253 206.963 15.856 206.59 15.856C206.153 15.856 205.763 15.9573 205.422 16.16C205.091 16.352 204.83 16.6187 204.638 16.96C204.457 17.3013 204.366 17.7013 204.366 18.16C204.366 18.608 204.457 19.008 204.638 19.36C204.83 19.7013 205.091 19.9733 205.422 20.176C205.763 20.368 206.153 20.464 206.59 20.464C206.963 20.464 207.305 20.4 207.614 20.272C207.934 20.1333 208.206 19.9307 208.43 19.664L209.582 20.832C209.219 21.2587 208.777 21.5893 208.254 21.824C207.742 22.048 207.187 22.16 206.59 22.16ZM214.215 22.16C213.468 22.16 212.791 21.984 212.183 21.632C211.575 21.2693 211.089 20.784 210.727 20.176C210.375 19.568 210.199 18.8907 210.199 18.144C210.199 17.3973 210.375 16.7253 210.727 16.128C211.089 15.5307 211.575 15.056 212.183 14.704C212.791 14.3413 213.468 14.16 214.215 14.16C214.972 14.16 215.655 14.336 216.263 14.688C216.871 15.04 217.351 15.52 217.703 16.128C218.065 16.7253 218.247 17.3973 218.247 18.144C218.247 18.8907 218.065 19.568 217.703 20.176C217.351 20.784 216.871 21.2693 216.263 21.632C215.655 21.984 214.972 22.16 214.215 22.16ZM214.215 20.464C214.652 20.464 215.036 20.368 215.367 20.176C215.708 19.9733 215.969 19.696 216.151 19.344C216.343 18.992 216.439 18.592 216.439 18.144C216.439 17.696 216.343 17.3013 216.151 16.96C215.959 16.6187 215.697 16.352 215.367 16.16C215.036 15.9573 214.652 15.856 214.215 15.856C213.788 15.856 213.404 15.9573 213.063 16.16C212.732 16.352 212.471 16.6187 212.279 16.96C212.097 17.3013 212.007 17.696 212.007 18.144C212.007 18.592 212.097 18.992 212.279 19.344C212.471 19.696 212.732 19.9733 213.063 20.176C213.404 20.368 213.788 20.464 214.215 20.464Z" fill="white"/>
</g>
<defs>
<filter id="filter0_d_1_87" x="0" y="0" width="222.247" height="40" filterUnits="userSpaceOnUse" color-interpolation-filters="sRGB">
<feFlood flood-opacity="0" result="BackgroundImageFix"/>
<feColorMatrix in="SourceAlpha" type="matrix" values="0 0 0 0 0 0 0 0 0 0 0 0 0 0 0 0 0 0 127 0" result="hardAlpha"/>
<feOffset dy="4"/>
<feGaussianBlur stdDeviation="2"/>
<feComposite in2="hardAlpha" operator="out"/>
<feColorMatrix type="matrix" values="0 0 0 0 0 0 0 0 0 0 0 0 0 0 0 0 0 0 0.25 0"/>
<feBlend mode="normal" in2="BackgroundImageFix" result="effect1_dropShadow_1_87"/>
<feBlend mode="normal" in="SourceGraphic" in2="effect1_dropShadow_1_87" result="shape"/>
</filter>
</defs>
</svg>
