<svg width="12" height="12" viewBox="0 0 12 12" fill="none" xmlns="http://www.w3.org/2000/svg">
<circle cx="6" cy="6" r="6" fill="#F4C558"/>
<path d="M8.2275 3.72749C8.33315 3.62691 8.47374 3.5713 8.61961 3.5724C8.76548 3.57351 8.90521 3.63124 9.00933 3.73341C9.11345 3.83558 9.1738 3.9742 9.17766 4.12002C9.18151 4.26584 9.12857 4.40746 9.03 4.51499L6.0375 8.25749C5.98604 8.31291 5.92393 8.35739 5.8549 8.38827C5.78586 8.41914 5.7113 8.43577 5.63568 8.43717C5.56007 8.43857 5.48495 8.42471 5.41481 8.39641C5.34468 8.36812 5.28097 8.32597 5.2275 8.27249L3.243 6.28799C3.18773 6.23649 3.1434 6.17439 3.11266 6.10539C3.08192 6.03639 3.06538 5.96191 3.06405 5.88638C3.06272 5.81085 3.07661 5.73583 3.1049 5.66579C3.13319 5.59575 3.1753 5.53213 3.22872 5.47871C3.28213 5.4253 3.34576 5.38319 3.4158 5.3549C3.48584 5.32661 3.56086 5.31271 3.63639 5.31405C3.71192 5.31538 3.7864 5.33191 3.8554 5.36265C3.9244 5.3934 3.9865 5.43772 4.038 5.49299L5.6085 7.06274L8.21325 3.74399C8.21794 3.73822 8.22294 3.73271 8.22825 3.72749H8.2275Z" fill="#1E1B33"/>
</svg>
