<svg width="14" height="14" viewBox="0 0 14 14" fill="none" xmlns="http://www.w3.org/2000/svg">
<g clip-path="url(#clip0_1_146)">
<path d="M12.8753 2.31563C11.3527 0.793433 8.87572 0.793433 7.35352 2.31563L6.99996 2.66899L6.64661 2.31563C5.1244 0.793226 2.64722 0.793226 1.12502 2.31563C-0.366272 3.80693 -0.375956 6.17079 1.10256 7.81435C2.45108 9.31285 6.42821 12.5503 6.59695 12.6873C6.71151 12.7805 6.84935 12.8258 6.98636 12.8258C6.99089 12.8258 6.99543 12.8258 6.99975 12.8256C7.14151 12.8322 7.28429 12.7835 7.40256 12.6873C7.5713 12.5503 11.5488 9.31285 12.8978 7.81414C14.3761 6.17079 14.3664 3.80693 12.8753 2.31563ZM11.9788 6.98731C10.9274 8.15534 8.03736 10.5643 6.99975 11.4192C5.96215 10.5645 3.07269 8.15575 2.02149 6.98752C0.990069 5.84113 0.980385 4.20849 1.99903 3.18985C2.51927 2.66981 3.20249 2.40959 3.88571 2.40959C4.56893 2.40959 5.25215 2.6696 5.77239 3.18985L6.54956 3.96702C6.64207 4.05953 6.75869 4.11475 6.88108 4.13411C7.0797 4.17676 7.29521 4.12134 7.44974 3.96722L8.22732 3.18985C9.26801 2.14957 10.9608 2.14977 12.0009 3.18985C13.0195 4.20849 13.0098 5.84113 11.9788 6.98731Z" fill="white"/>
</g>
<defs>
<clipPath id="clip0_1_146">
<rect width="14" height="14" fill="white"/>
</clipPath>
</defs>
</svg>
